<svg width="186" height="186" viewBox="0 0 186 186" fill="none" xmlns="http://www.w3.org/2000/svg">
<rect width="186" height="186" rx="12" fill="#242424"/>
<g clip-path="url(#clip0)">
<path d="M42.9744 135.424H90.7767V142.253H42.9744V135.424Z" fill="#FEFDFC"/>
<path d="M83.9478 128.539C83.9478 127.633 83.5881 126.765 82.9478 126.125C82.3074 125.484 81.439 125.125 80.5334 125.125H53.2178C52.3122 125.125 51.4437 125.484 50.8034 126.125C50.1631 126.765 49.8033 127.633 49.8033 128.539V132.009H83.9478V128.539Z" fill="#FEFDFC"/>
<path d="M89.4331 100.623C87.8421 102.318 86.508 104.237 85.4731 106.32L113.578 134.424C114.218 135.064 115.086 135.424 115.992 135.424C116.897 135.424 117.765 135.064 118.406 134.424L123.234 129.595C123.552 129.278 123.803 128.902 123.975 128.487C124.146 128.073 124.235 127.629 124.235 127.181C124.235 126.732 124.146 126.288 123.975 125.874C123.803 125.46 123.552 125.083 123.234 124.766L95.1301 96.6694C93.0443 97.6952 91.124 99.0277 89.4331 100.623Z" fill="#FEFDFC"/>
<path d="M72.5324 83.7219C69.9503 86.1181 66.9614 88.0344 63.7061 89.3805L81.3537 107.028C82.7119 103.778 84.63 100.792 87.0208 98.206C89.6031 95.8099 92.592 93.8934 95.8472 92.5465L78.1987 74.9023C76.84 78.1508 74.9222 81.1359 72.5324 83.7219Z" fill="#FEFDFC"/>
<path d="M84.5986 61.9977L79.7706 66.8257C78.4374 68.159 78.4374 70.3205 79.7706 71.6538L99.0827 90.9659C100.416 92.2991 102.578 92.2991 103.911 90.9659L108.739 86.1379C110.072 84.8046 110.072 82.6431 108.739 81.3098L89.4267 61.9977C88.0934 60.6645 85.9318 60.6645 84.5986 61.9977Z" fill="#FEFDFC"/>
<path d="M55.6261 90.9645L50.7981 95.7925C49.4648 97.1258 49.4648 99.2873 50.7981 100.621L70.1102 119.933C71.4434 121.266 73.605 121.266 74.9382 119.933L79.7663 115.105C81.0995 113.771 81.0995 111.61 79.7663 110.277L60.4541 90.9645C59.1209 89.6313 56.9593 89.6313 55.6261 90.9645Z" fill="#FEFDFC"/>
</g>
<path d="M126.523 41.3239C123.259 40.4493 119.809 40.5622 116.609 41.6484C113.409 42.7346 110.604 44.7453 108.546 47.4261C106.489 50.107 105.273 53.3376 105.052 56.7096C104.831 60.0815 105.615 63.4432 107.305 66.3696C108.994 69.2961 111.514 71.6558 114.545 73.1503C117.575 74.6449 120.981 75.2072 124.331 74.7661C127.681 74.325 130.826 72.9004 133.366 70.6724C135.907 68.4444 137.73 65.513 138.604 62.249C139.777 57.8721 139.163 53.2086 136.897 49.2843C134.632 45.3601 130.9 42.4966 126.523 41.3239ZM118.483 71.3295C115.813 70.614 113.414 69.1226 111.591 67.0439C109.768 64.9652 108.603 62.3927 108.242 59.6516C107.881 56.9105 108.341 54.1239 109.564 51.6443C110.787 49.1646 112.717 47.1033 115.112 45.7209C117.506 44.3385 120.257 43.6972 123.015 43.878C125.774 44.0589 128.418 45.0537 130.611 46.7368C132.804 48.4199 134.449 50.7156 135.338 53.3336C136.227 55.9517 136.319 58.7744 135.604 61.445C134.644 65.0261 132.301 68.0793 129.091 69.933C125.88 71.7868 122.064 72.2891 118.483 71.3295ZM127.112 51.1296L127.514 49.6293C127.62 49.2314 127.565 48.8074 127.359 48.4507C127.153 48.0939 126.813 47.8336 126.415 47.727C126.018 47.6204 125.594 47.6762 125.237 47.8822C124.88 48.0881 124.62 48.4274 124.513 48.8253L124.111 50.3256L122.611 49.9236L123.013 48.4233C123.119 48.0254 123.064 47.6014 122.858 47.2447C122.652 46.8879 122.312 46.6276 121.915 46.521C121.517 46.4144 121.093 46.4702 120.736 46.6762C120.379 46.8821 120.119 47.2214 120.012 47.6193L119.61 49.1196L118.11 48.7176C117.712 48.6109 117.288 48.6668 116.931 48.8727C116.575 49.0787 116.314 49.4179 116.208 49.8158C116.101 50.2137 116.157 50.6377 116.363 50.9944C116.569 51.3512 116.908 51.6115 117.306 51.7181L118.806 52.1201L116.394 61.1218L114.894 60.7198C114.496 60.6132 114.072 60.669 113.715 60.875C113.359 61.081 113.098 61.4202 112.992 61.8181C112.885 62.216 112.941 62.64 113.147 62.9967C113.353 63.3535 113.692 63.6138 114.09 63.7204L115.59 64.1224L115.188 65.6227C115.082 66.0206 115.137 66.4445 115.343 66.8013C115.549 67.158 115.889 67.4184 116.287 67.525C116.684 67.6316 117.108 67.5758 117.465 67.3698C117.822 67.1638 118.082 66.8246 118.189 66.4267L118.591 64.9264L120.091 65.3284L119.689 66.8287C119.583 67.2266 119.638 67.6505 119.844 68.0073C120.05 68.364 120.39 68.6244 120.787 68.731C121.185 68.8376 121.609 68.7818 121.966 68.5758C122.323 68.3698 122.583 68.0306 122.69 67.6327L123.092 66.1324C124.285 66.4523 125.557 66.2848 126.628 65.6669C127.698 65.049 128.479 64.0312 128.799 62.8375C129.093 61.7286 128.968 60.5499 128.447 59.5274C129.409 58.9023 130.107 57.9441 130.407 56.8364C130.726 55.6427 130.559 54.3708 129.941 53.3006C129.323 52.2304 128.305 51.4494 127.112 51.1296ZM123.896 63.1318L119.395 61.9258L120.199 58.9253L124.7 60.1313C125.098 60.2379 125.437 60.4982 125.643 60.8549C125.849 61.2117 125.905 61.6357 125.798 62.0335C125.691 62.4315 125.431 62.7707 125.074 62.9767C124.718 63.1826 124.294 63.2385 123.896 63.1318ZM125.504 57.1307L121.003 55.9247L121.807 52.9241L126.308 54.1301C126.706 54.2367 127.045 54.4971 127.251 54.8538C127.457 55.2106 127.513 55.6345 127.406 56.0324C127.299 56.4303 127.039 56.7696 126.682 56.9755C126.326 57.1815 125.902 57.2373 125.504 57.1307Z" fill="#FEFDFC"/>
<g clip-path="url(#clip1)">
<path d="M134.464 91.4527C132.273 92.0397 130.305 93.2633 128.81 94.9686C127.314 96.674 126.358 98.7845 126.062 101.033C125.766 103.282 126.143 105.568 127.146 107.603C128.15 109.637 129.734 111.328 131.698 112.462C133.662 113.596 135.919 114.122 138.182 113.974C140.446 113.826 142.614 113.01 144.414 111.629C146.213 110.248 147.563 108.365 148.292 106.217C149.021 104.069 149.097 101.753 148.51 99.562C147.722 96.6241 145.8 94.1192 143.166 92.5984C140.532 91.0776 137.402 90.6654 134.464 91.4527ZM139.861 111.594C138.068 112.074 136.173 112.012 134.416 111.416C132.659 110.819 131.118 109.715 129.988 108.242C128.858 106.77 128.19 104.996 128.069 103.144C127.948 101.292 128.378 99.4459 129.306 97.8387C130.234 96.2315 131.618 94.9355 133.282 94.1147C134.946 93.2939 136.817 92.9851 138.657 93.2273C140.497 93.4696 142.224 94.252 143.619 95.4756C145.014 96.6992 146.015 98.3091 146.496 100.102C147.14 102.506 146.802 105.067 145.558 107.222C144.314 109.377 142.264 110.95 139.861 111.594ZM138.097 96.9553L137.827 95.9483C137.756 95.6812 137.581 95.4535 137.341 95.3152C137.102 95.1769 136.817 95.1395 136.55 95.211C136.283 95.2826 136.055 95.4573 135.917 95.6968C135.779 95.9363 135.741 96.2208 135.813 96.4879L136.083 97.495L135.076 97.7648L134.806 96.7578C134.734 96.4907 134.56 96.263 134.32 96.1247C134.081 95.9865 133.796 95.949 133.529 96.0206C133.262 96.0921 133.034 96.2669 132.896 96.5063C132.758 96.7458 132.72 97.0304 132.792 97.2975L133.062 98.3045L132.055 98.5744C131.788 98.6459 131.56 98.8207 131.422 99.0601C131.283 99.2996 131.246 99.5842 131.317 99.8512C131.389 100.118 131.564 100.346 131.803 100.484C132.043 100.623 132.327 100.66 132.594 100.588L133.601 100.319L135.22 106.361L134.213 106.631C133.946 106.702 133.719 106.877 133.58 107.117C133.442 107.356 133.405 107.641 133.476 107.908C133.548 108.175 133.722 108.402 133.962 108.541C134.201 108.679 134.486 108.716 134.753 108.645L135.76 108.375L136.03 109.382C136.102 109.649 136.276 109.877 136.516 110.015C136.755 110.153 137.04 110.191 137.307 110.119C137.574 110.048 137.802 109.873 137.94 109.634C138.078 109.394 138.116 109.11 138.044 108.842L137.774 107.835L138.781 107.566L139.051 108.573C139.123 108.84 139.297 109.067 139.537 109.206C139.776 109.344 140.061 109.381 140.328 109.31C140.595 109.238 140.823 109.064 140.961 108.824C141.099 108.585 141.137 108.3 141.065 108.033L140.795 107.026C141.597 106.811 142.28 106.287 142.695 105.569C143.109 104.85 143.222 103.996 143.007 103.195C142.806 102.452 142.338 101.809 141.692 101.389C142.041 100.703 142.125 99.9114 141.928 99.167C141.713 98.3657 141.189 97.6825 140.47 97.2678C139.752 96.853 138.898 96.7406 138.097 96.9553ZM140.256 105.012L137.235 105.821L136.695 103.807L139.716 102.998C139.983 102.926 140.268 102.964 140.507 103.102C140.747 103.24 140.921 103.468 140.993 103.735C141.064 104.002 141.027 104.287 140.889 104.526C140.751 104.765 140.523 104.94 140.256 105.012ZM139.176 100.984L136.155 101.793L135.616 99.7789L138.637 98.9694C138.904 98.8979 139.188 98.9353 139.428 99.0736C139.667 99.2118 139.842 99.4396 139.914 99.7066C139.985 99.9737 139.948 100.258 139.809 100.498C139.671 100.737 139.443 100.912 139.176 100.984Z" fill="#FEFDFC"/>
</g>
<g clip-path="url(#clip2)">
<path d="M44.3674 53.9177C42.5723 54.3987 40.9601 55.4012 39.7348 56.7984C38.5095 58.1956 37.726 59.9248 37.4834 61.7673C37.2408 63.6098 37.5501 65.4829 38.372 67.1496C39.194 68.8164 40.4917 70.202 42.1012 71.1312C43.7106 72.0604 45.5594 72.4915 47.4138 72.3699C49.2683 72.2484 51.045 71.5797 52.5194 70.4483C53.9937 69.317 55.0995 67.7739 55.6969 66.0141C56.2943 64.2543 56.3564 62.3569 55.8754 60.5618C55.2304 58.1547 53.6556 56.1024 51.4974 54.8564C49.3392 53.6103 46.7745 53.2727 44.3674 53.9177ZM48.7891 70.4197C47.3203 70.8132 45.7679 70.7624 44.3281 70.2736C42.8883 69.7849 41.6257 68.8801 40.7001 67.6738C39.7745 66.4675 39.2273 65.0138 39.1279 63.4966C39.0285 61.9793 39.3812 60.4666 40.1414 59.1498C40.9017 57.833 42.0353 56.7713 43.399 56.0987C44.7627 55.4262 46.2952 55.1732 47.8028 55.3717C49.3103 55.5702 50.7251 56.2112 51.8682 57.2137C53.0114 58.2163 53.8316 59.5353 54.2252 61.004C54.7529 62.9735 54.4766 65.0719 53.4572 66.8377C52.4377 68.6035 50.7585 69.8919 48.7891 70.4197ZM47.3441 58.4261L47.123 57.601C47.0643 57.3822 46.9212 57.1956 46.725 57.0823C46.5288 56.9691 46.2956 56.9384 46.0768 56.997C45.858 57.0556 45.6714 57.1988 45.5581 57.395C45.4448 57.5912 45.4141 57.8243 45.4728 58.0432L45.6939 58.8683L44.8688 59.0894L44.6477 58.2643C44.589 58.0454 44.4459 57.8589 44.2497 57.7456C44.0535 57.6323 43.8203 57.6016 43.6015 57.6602C43.3827 57.7189 43.1961 57.862 43.0828 58.0582C42.9695 58.2544 42.9388 58.4876 42.9975 58.7064L43.2186 59.5315L42.3935 59.7526C42.1746 59.8112 41.9881 59.9544 41.8748 60.1506C41.7615 60.3468 41.7308 60.58 41.7895 60.7988C41.8481 61.0176 41.9913 61.2042 42.1874 61.3175C42.3836 61.4307 42.6168 61.4614 42.8356 61.4028L43.6607 61.1817L44.9872 66.1323L44.1621 66.3534C43.9433 66.412 43.7567 66.5552 43.6435 66.7514C43.5302 66.9476 43.4995 67.1808 43.5581 67.3996C43.6168 67.6184 43.7599 67.805 43.9561 67.9183C44.1523 68.0315 44.3855 68.0622 44.6043 68.0036L45.4294 67.7825L45.6505 68.6076C45.7091 68.8265 45.8523 69.013 46.0485 69.1263C46.2447 69.2396 46.4779 69.2703 46.6967 69.2116C46.9155 69.153 47.1021 69.0098 47.2154 68.8136C47.3286 68.6174 47.3593 68.3843 47.3007 68.1655L47.0796 67.3404L47.9047 67.1193L48.1258 67.9444C48.1844 68.1632 48.3276 68.3498 48.5238 68.463C48.72 68.5763 48.9532 68.607 49.172 68.5484C49.3908 68.4897 49.5774 68.3466 49.6907 68.1504C49.8039 67.9542 49.8346 67.721 49.776 67.5022L49.5549 66.6771C50.2114 66.5012 50.7711 66.0717 51.1109 65.4831C51.4508 64.8945 51.5429 64.195 51.367 63.5385C51.2023 62.9294 50.8186 62.4024 50.2895 62.0586C50.5758 61.4963 50.6446 60.848 50.4826 60.2381C50.3067 59.5817 49.8772 59.0219 49.2886 58.6821C48.7 58.3423 48.0006 58.2502 47.3441 58.4261ZM49.1127 65.0269L46.6374 65.6902L46.1953 64.04L48.6706 63.3767C48.8894 63.3181 49.1226 63.3488 49.3188 63.462C49.515 63.5753 49.6581 63.7619 49.7168 63.9807C49.7754 64.1995 49.7447 64.4327 49.6314 64.6289C49.5181 64.8251 49.3316 64.9683 49.1127 65.0269ZM48.2284 61.7265L45.7531 62.3898L45.3109 60.7396L47.7862 60.0763C48.0051 60.0177 48.2382 60.0484 48.4344 60.1616C48.6306 60.2749 48.7738 60.4615 48.8324 60.6803C48.8911 60.8991 48.8604 61.1323 48.7471 61.3285C48.6338 61.5247 48.4472 61.6679 48.2284 61.7265Z" fill="#FEFDFC"/>
</g>
<defs>
<clipPath id="clip0">
<rect width="81.9469" height="81.9469" fill="white" transform="translate(42.9744 60.3057)"/>
</clipPath>
<clipPath id="clip1">
<rect width="25.0219" height="25.0219" fill="white" transform="translate(122.109 93.6836) rotate(-15)"/>
</clipPath>
<clipPath id="clip2">
<rect width="20.5009" height="20.5009" fill="white" transform="translate(34.2451 55.7456) rotate(-15)"/>
</clipPath>
</defs>
</svg>
