<svg width="186" height="186" viewBox="0 0 186 186" fill="none" xmlns="http://www.w3.org/2000/svg">
<rect width="186" height="186" rx="12" fill="#242424"/>
<path d="M149.919 71.3737C149.828 71.0205 149.655 70.6939 149.412 70.421C149.17 70.1482 148.867 69.9368 148.527 69.8043C145.236 68.54 139.996 68.5505 139.71 68.552C139.425 68.5497 134.184 68.5399 130.894 69.8043C130.554 69.9368 130.251 70.1481 130.009 70.421C129.766 70.6939 129.593 71.0204 129.502 71.3736C129.253 72.3271 128.957 74.0705 128.957 76.9619C128.957 79.8531 129.253 81.5966 129.501 82.55C129.593 82.9032 129.766 83.2298 130.008 83.5027C130.251 83.7755 130.554 83.9869 130.894 84.1194C134.044 85.3298 138.98 85.3719 139.647 85.3719C139.707 85.3719 139.714 85.3719 139.774 85.3719C140.441 85.3718 145.377 85.3297 148.527 84.1194C148.867 83.9869 149.17 83.7756 149.412 83.5027C149.654 83.2298 149.828 82.9033 149.919 82.5501C150.168 81.5966 150.464 79.8532 150.464 76.9619C150.464 74.0706 150.168 72.3271 149.919 71.3737ZM142.996 77.2814L138.387 80.3538C138.329 80.3923 138.262 80.4145 138.193 80.4178C138.123 80.4212 138.054 80.4056 137.993 80.3728C137.932 80.34 137.88 80.2912 137.845 80.2316C137.809 80.1719 137.79 80.1037 137.79 80.0342V73.8895C137.79 73.82 137.809 73.7518 137.845 73.6921C137.88 73.6325 137.932 73.5837 137.993 73.5509C138.054 73.5181 138.123 73.5025 138.193 73.5059C138.262 73.5092 138.329 73.5314 138.387 73.57L142.996 76.6423C143.048 76.6774 143.092 76.7249 143.121 76.7806C143.151 76.8364 143.167 76.8986 143.167 76.9619C143.167 77.0251 143.151 77.0873 143.121 77.1431C143.092 77.1988 143.048 77.2463 142.996 77.2814Z" fill="#FEFDFC"/>
<path d="M71.7211 40.8636L69.4783 43.1063C69.4181 45.3229 68.5721 47.4847 67.136 49.0719C65.4541 50.9308 63.1322 51.9134 60.4211 51.9134C57.7851 51.9134 56.4262 50.5849 56.3697 50.5283C56.2924 50.4511 56.2376 50.3543 56.211 50.2483C56.1844 50.1423 56.187 50.0311 56.2186 49.9265C56.2502 49.8219 56.3096 49.7279 56.3905 49.6543C56.4713 49.5808 56.5706 49.5306 56.6777 49.5091C57.3224 49.3785 58.9226 48.8699 59.6035 47.9532C58.8734 47.5322 58.2251 46.9832 57.6896 46.3324C55.7951 44.0318 55.8352 41.1406 56.2025 39.1203C56.2233 39.0063 56.2764 38.9006 56.3555 38.816C56.4347 38.7313 56.5365 38.6711 56.6489 38.6428C56.7613 38.6144 56.8795 38.6189 56.9893 38.6558C57.0992 38.6928 57.1961 38.7606 57.2685 38.8511C57.2893 38.8769 59.2746 41.3091 62.2333 42.1037V41.6448C62.2396 40.6776 62.6298 39.7525 63.3181 39.0729C64.0063 38.3933 64.9363 38.0148 65.9035 38.0206C66.5318 38.0293 67.147 38.2008 67.6892 38.5184C68.2314 38.8359 68.682 39.2887 68.9969 39.8324L71.294 39.8325C71.4134 39.8325 71.5302 39.8679 71.6295 39.9343C71.7289 40.0006 71.8063 40.095 71.852 40.2053C71.8977 40.3157 71.9097 40.4372 71.8864 40.5543C71.8631 40.6715 71.8056 40.7791 71.7211 40.8636Z" fill="#FEFDFC"/>
<path d="M135.643 37.7192H122.047C121.686 37.7197 121.34 37.863 121.086 38.1179C120.831 38.3728 120.687 38.7184 120.687 39.0789V51.3155C120.687 51.6759 120.831 52.0215 121.086 52.2764C121.34 52.5313 121.686 52.6747 122.047 52.6751H123.406V55.3944C123.406 55.5236 123.443 55.6501 123.512 55.7591C123.582 55.8682 123.681 55.9552 123.798 56.01C123.915 56.0648 124.045 56.0851 124.173 56.0686C124.301 56.052 124.422 55.9993 124.521 55.9166L128.411 52.6751H131.998C132.316 52.6749 132.624 52.5634 132.868 52.3599L136.513 49.3223C136.666 49.1949 136.79 49.0352 136.874 48.8547C136.959 48.6742 137.003 48.4772 137.002 48.2778V39.0789C137.002 38.7184 136.859 38.3728 136.604 38.1179C136.349 37.863 136.003 37.7197 135.643 37.7192ZM128.845 46.5568C128.845 46.7371 128.773 46.91 128.646 47.0375C128.518 47.165 128.345 47.2366 128.165 47.2366C127.985 47.2366 127.812 47.165 127.684 47.0375C127.557 46.91 127.485 46.7371 127.485 46.5568V42.4779C127.485 42.2976 127.557 42.1247 127.684 41.9972C127.812 41.8697 127.985 41.7981 128.165 41.7981C128.345 41.7981 128.518 41.8697 128.646 41.9972C128.773 42.1247 128.845 42.2976 128.845 42.4779V46.5568ZM132.924 46.5568C132.924 46.7371 132.852 46.91 132.724 47.0375C132.597 47.165 132.424 47.2366 132.244 47.2366C132.063 47.2366 131.89 47.165 131.763 47.0375C131.636 46.91 131.564 46.7371 131.564 46.5568V42.4779C131.564 42.2976 131.636 42.1247 131.763 41.9972C131.89 41.8697 132.063 41.7981 132.244 41.7981C132.424 41.7981 132.597 41.8697 132.724 41.9972C132.852 42.1247 132.924 42.2976 132.924 42.4779V46.5568Z" fill="#FEFDFC"/>
<path d="M60.1014 71.485C60.0135 70.9011 59.7597 70.3548 59.3701 69.9111C58.9804 69.4675 58.4715 69.1451 57.9039 68.9825C57.3363 68.82 56.7339 68.8239 56.1685 68.994C55.6031 69.1641 55.0985 69.4932 54.7148 69.942C52.9921 69.3351 51.0102 69.1103 49.0024 69.2917L49.0495 66.2493L51.1759 66.2557C51.356 66.7702 51.7122 67.2046 52.1815 67.4819C52.6509 67.7592 53.2031 67.8617 53.7407 67.7712C54.2783 67.6807 54.7666 67.4031 55.1193 66.9874C55.4719 66.5717 55.6663 66.0447 55.668 65.4996C55.6697 64.9544 55.4787 64.4262 55.1286 64.0083C54.7785 63.5904 54.292 63.3098 53.755 63.2159C53.218 63.1221 52.6651 63.2211 52.194 63.4955C51.7229 63.7698 51.364 64.2019 51.1807 64.7153L48.2935 64.7067C48.0909 64.706 47.8961 64.7852 47.7515 64.9271C47.6069 65.0691 47.5241 65.2623 47.5211 65.4649L47.4584 69.5127C45.3929 69.9158 43.4743 70.7345 41.9466 71.8671C41.2629 71.4346 40.4365 71.2884 39.646 71.4602C38.8554 71.632 38.1642 72.1079 37.7216 72.7851C37.279 73.4623 37.1207 74.2865 37.2808 75.0795C37.4409 75.8725 37.9066 76.5707 38.5772 77.0232C38.5061 77.5543 38.5104 78.0929 38.5901 78.6228C38.905 80.7109 40.3444 82.4817 42.6431 83.6089C44.8475 84.6898 47.6025 85.0528 50.4003 84.6309C53.1982 84.209 55.7237 83.0499 57.5113 81.3671C59.3755 79.6122 60.2288 77.4957 59.914 75.4076C59.8339 74.8778 59.6792 74.3619 59.4546 73.8754C59.721 73.5429 59.916 73.1589 60.0273 72.7476C60.1386 72.3363 60.1638 71.9065 60.1014 71.485ZM43.7488 76.6767C43.7034 76.3754 43.7483 76.0675 43.8779 75.7918C44.0075 75.5161 44.216 75.285 44.4769 75.1277C44.7379 74.9705 45.0396 74.8941 45.3439 74.9083C45.6482 74.9226 45.9415 75.0267 46.1866 75.2076C46.4317 75.3885 46.6177 75.638 46.721 75.9246C46.8244 76.2112 46.8404 76.522 46.7671 76.8177C46.6937 77.1134 46.5344 77.3807 46.3091 77.5859C46.0839 77.791 45.8029 77.9247 45.5016 77.9702C45.0977 78.0306 44.6864 77.9283 44.3578 77.6858C44.0292 77.4434 43.8102 77.0804 43.7488 76.6767ZM53.3068 80.2116C52.3103 80.931 51.1564 81.402 49.9412 81.5853C48.7259 81.7685 47.4844 81.6587 46.3201 81.265C46.1272 81.199 45.9684 81.0591 45.8785 80.8762C45.7885 80.6932 45.7747 80.4821 45.8402 80.289C45.9057 80.0959 46.0451 79.9367 46.2278 79.8462C46.4104 79.7557 46.6216 79.7413 46.8148 79.8063C47.7462 80.1212 48.7393 80.2091 49.7115 80.0625C50.6837 79.9159 51.6068 79.5391 52.4039 78.9635C52.5694 78.8439 52.7756 78.795 52.9772 78.8274C53.1788 78.8598 53.3593 78.9709 53.479 79.1364C53.5987 79.3018 53.6478 79.508 53.6155 79.7096C53.5832 79.9112 53.4721 80.0918 53.3068 80.2116ZM53.1173 76.8219C52.8161 76.8673 52.5081 76.8224 52.2324 76.6928C51.9567 76.5632 51.7256 76.3547 51.5683 76.0938C51.4111 75.8329 51.3348 75.5311 51.349 75.2268C51.3632 74.9225 51.4673 74.6292 51.6482 74.3841C51.8291 74.139 52.0787 73.953 52.3653 73.8497C52.6519 73.7463 52.9627 73.7303 53.2584 73.8036C53.554 73.877 53.8214 74.0363 54.0265 74.2616C54.2316 74.4868 54.3654 74.7678 54.4108 75.0691C54.4712 75.473 54.369 75.8843 54.1265 76.2129C53.884 76.5415 53.5211 76.7605 53.1173 76.8219Z" fill="#FEFDFC"/>
<path d="M111.385 67.1293L106.786 51.799C106.694 51.49 106.533 51.2055 106.317 50.9665C106.101 50.7274 105.833 50.5399 105.535 50.4175L105.462 50.4396L105.537 50.4136C104.027 49.7982 102.462 49.3309 100.862 49.0183C100.722 48.9906 100.579 48.9906 100.439 49.0184C100.3 49.0461 100.167 49.1011 100.049 49.1801C99.9305 49.2592 99.8289 49.3607 99.7499 49.479C99.6709 49.5972 99.616 49.7299 99.5883 49.8694C99.5605 50.0089 99.5605 50.1525 99.5883 50.2919C99.6161 50.4314 99.671 50.5641 99.75 50.6823C99.8291 50.8006 99.9306 50.9021 100.049 50.9811C100.167 51.0601 100.3 51.1151 100.439 51.1428C101.046 51.2635 101.641 51.4055 102.224 51.5689C102.452 51.6816 102.633 51.8713 102.735 52.1045C102.837 52.3377 102.854 52.5995 102.782 52.8436C102.709 53.0877 102.553 53.2985 102.341 53.4387C102.128 53.5789 101.873 53.6395 101.62 53.6099C97.4802 52.5463 93.1396 52.5378 88.9954 53.585C88.7379 53.6483 88.4662 53.6149 88.2317 53.4911C87.9972 53.3673 87.8163 53.1617 87.7234 52.9134C87.6304 52.665 87.6319 52.3912 87.7275 52.1439C87.8231 51.8966 88.0062 51.6929 88.242 51.5716L88.2466 51.5732C88.8291 51.4101 89.4247 51.2679 90.0336 51.1466C90.3153 51.0905 90.5632 50.9249 90.7227 50.6861C90.8823 50.4473 90.9405 50.1549 90.8845 49.8732C90.8285 49.5915 90.6629 49.3436 90.4241 49.184C90.1853 49.0244 89.8929 48.9662 89.6112 49.0221C88.0113 49.3347 86.4456 49.802 84.9361 50.4174C84.6377 50.5397 84.3705 50.7273 84.1541 50.9664C83.9377 51.2054 83.7776 51.4899 83.6855 51.7989L79.0864 67.1293C78.9676 67.5304 78.9668 67.9572 79.0841 68.3588C79.2014 68.7603 79.4319 69.1196 79.7479 69.3936C79.8771 69.506 80.0096 69.6163 80.1439 69.7255C80.1471 69.7281 80.1498 69.7311 80.153 69.7336C82.3501 71.5159 85.2299 72.8776 88.4808 73.6712C88.7599 73.7393 89.0545 73.6938 89.3 73.5447C89.5454 73.3955 89.7216 73.155 89.7897 72.876C89.8579 72.597 89.8124 72.3023 89.6632 72.0569C89.5141 71.8114 89.2736 71.6352 88.9946 71.5671C87.5325 71.2157 86.1108 70.7136 84.7523 70.069L84.7612 70.0697C84.5707 69.897 84.4479 69.6621 84.4148 69.4071C84.3817 69.1521 84.4404 68.8937 84.5804 68.678C84.7205 68.4623 84.9327 68.3036 85.1791 68.2301C85.4255 68.1567 85.69 68.1733 85.9253 68.2771C88.4954 69.4218 91.7244 70.1334 95.2355 70.1334C98.7467 70.1334 101.978 69.421 104.548 68.2762C104.783 68.173 105.048 68.1569 105.294 68.2307C105.54 68.3045 105.752 68.4635 105.891 68.6791C106.031 68.8947 106.089 69.153 106.056 69.4077C106.023 69.6625 105.9 69.8971 105.71 70.0697L105.719 70.069C104.36 70.7136 102.939 71.2157 101.477 71.5671C101.197 71.6352 100.957 71.8114 100.808 72.0569C100.659 72.3023 100.613 72.597 100.681 72.876C100.749 73.155 100.926 73.3955 101.171 73.5447C101.417 73.6938 101.711 73.7393 101.99 73.6712C105.241 72.8776 108.121 71.5159 110.318 69.7336C110.321 69.731 110.324 69.728 110.327 69.7252H110.327C110.462 69.6161 110.594 69.5058 110.723 69.3935C111.039 69.1194 111.27 68.7602 111.387 68.3587C111.504 67.9572 111.503 67.5304 111.385 67.1293ZM90.9037 65.26C90.5824 65.26 90.2683 65.1648 90.0012 64.9863C89.734 64.8078 89.5258 64.5541 89.4028 64.2572C89.2799 63.9604 89.2477 63.6338 89.3104 63.3187C89.3731 63.0035 89.5278 62.7141 89.755 62.4869C89.9822 62.2597 90.2716 62.105 90.5867 62.0423C90.9018 61.9796 91.2285 62.0118 91.5253 62.1348C91.8221 62.2577 92.0758 62.4659 92.2543 62.7331C92.4328 63.0002 92.5281 63.3143 92.5281 63.6356C92.5281 64.0664 92.357 64.4796 92.0523 64.7842C91.7477 65.0889 91.3345 65.26 90.9037 65.26ZM99.5674 65.26C99.2461 65.26 98.9321 65.1648 98.6649 64.9863C98.3978 64.8078 98.1896 64.5541 98.0666 64.2572C97.9437 63.9604 97.9115 63.6338 97.9742 63.3187C98.0369 63.0035 98.1916 62.7141 98.4188 62.4869C98.646 62.2597 98.9354 62.105 99.2505 62.0423C99.5656 61.9796 99.8923 62.0118 100.189 62.1348C100.486 62.2577 100.74 62.4659 100.918 62.7331C101.097 63.0002 101.192 63.3143 101.192 63.6356C101.192 64.0664 101.021 64.4796 100.716 64.7842C100.411 65.0889 99.9983 65.26 99.5674 65.26Z" fill="#FEFDFC"/>
<path d="M74.076 102.861C74.076 100.392 75.0568 98.0245 76.8025 96.2787C78.5483 94.533 80.916 93.5522 83.3849 93.5522C85.8537 93.5522 88.2215 94.533 89.9672 96.2787C91.713 98.0245 92.6937 100.392 92.6937 102.861C92.6937 105.33 91.713 107.698 89.9672 109.443C88.2215 111.189 85.8537 112.17 83.3849 112.17C80.916 112.17 78.5483 111.189 76.8025 109.443C75.0568 107.698 74.076 105.33 74.076 102.861Z" fill="#FEFDFC"/>
<path d="M105.627 110.234L105.823 110.383C107.798 111.847 110.271 112.47 112.704 112.117C115.137 111.763 117.331 110.462 118.808 108.497C120.285 106.532 120.924 104.062 120.587 101.628C120.25 99.1926 118.963 96.9898 117.008 95.5C115.052 94.0102 112.587 93.3544 110.15 93.6755C107.713 93.9967 105.502 95.2688 103.999 97.2143C102.496 99.1597 101.824 101.621 102.129 104.06C102.434 106.499 103.692 108.719 105.627 110.234Z" fill="#FEFDFC"/>
<path d="M89.2849 116.825C89.8695 115.718 90.6714 114.74 91.6426 113.95C92.6137 113.161 93.7343 112.575 94.9372 112.228C96.14 111.881 97.4005 111.78 98.6432 111.932C99.8858 112.083 101.085 112.484 102.169 113.11C103.254 113.735 104.201 114.573 104.953 115.574C105.706 116.574 106.25 117.715 106.551 118.931C106.853 120.146 106.906 121.409 106.708 122.645C106.51 123.881 106.065 125.065 105.398 126.125C104.117 128.164 102.095 129.627 99.758 130.207C97.4205 130.787 94.9492 130.438 92.8633 129.235C90.7774 128.031 89.2393 126.065 88.572 123.751C87.9047 121.437 88.1602 118.955 89.2849 116.825Z" fill="#FEFDFC"/>
<path d="M71.7487 116.824H84.176C83.664 118.281 83.3848 119.85 83.3848 121.479C83.3848 125.053 84.7299 128.321 86.9407 130.787H85.712C83.3123 130.787 80.9712 131.528 79.0091 132.91C77.0469 134.291 75.5597 136.245 74.7508 138.505C73.1885 137.877 71.7257 137.026 70.4082 135.977C66.9081 133.161 64.7671 129 64.7671 123.806C64.7671 121.954 65.5027 120.178 66.812 118.869C68.1213 117.56 69.8971 116.824 71.7487 116.824Z" fill="#FEFDFC"/>
<path d="M108.986 130.787C114.036 130.787 118.336 134.004 119.942 138.505C121.525 137.858 122.991 137.015 124.289 135.977C127.79 133.161 129.931 129 129.931 123.806C129.931 121.954 129.195 120.178 127.886 118.869C126.576 117.56 124.801 116.824 122.949 116.824H110.522C111.034 118.281 111.313 119.85 111.313 121.479C111.317 124.914 110.051 128.23 107.757 130.787H108.986Z" fill="#FEFDFC"/>
<path d="M115.44 139.762C115.78 140.581 115.966 141.484 115.966 142.424C115.966 147.618 113.829 151.779 110.325 154.595C106.876 157.365 102.249 158.715 97.3481 158.715C92.4469 158.715 87.8205 157.365 84.3715 154.595C80.8714 151.779 78.7304 147.618 78.7304 142.424C78.7279 141.507 78.9068 140.598 79.2568 139.749C79.6068 138.901 80.121 138.131 80.7698 137.482C81.4186 136.833 82.1892 136.319 83.0373 135.969C83.8855 135.619 84.7945 135.44 85.712 135.442H108.984C110.367 135.442 111.719 135.852 112.868 136.621C114.017 137.39 114.912 138.483 115.44 139.762Z" fill="#FEFDFC"/>
</svg>
