<svg width="186" height="186" viewBox="0 0 186 186" fill="none" xmlns="http://www.w3.org/2000/svg">
<rect width="186" height="186" rx="12" fill="#242424"/>
<path d="M71.9676 42C65.5177 42 60.283 47.1927 60.283 53.5909V68.6953L69.6307 59.4226V55.9091H116.369V59.4226L125.717 68.6953V53.5909C125.717 47.1927 120.482 42 114.032 42H71.9676ZM71 71.1765L49 93L71 114.824L77.6091 108.267L62.2183 93L77.6091 77.7326L71 71.1765ZM115 71.1765L108.391 77.7326L123.782 93L108.391 108.267L115 114.824L137 93L115 71.1765ZM60.283 117.305V132.409C60.283 138.807 65.5177 144 71.9676 144H114.032C120.482 144 125.717 138.807 125.717 132.409V117.305L116.369 126.577V130.091H69.6307V126.577L60.283 117.305Z" fill="#FEFDFC"/>
</svg>
