<svg width="24" height="17" viewBox="0 0 24 17" fill="none" xmlns="http://www.w3.org/2000/svg">
<path d="M19.98 2.16949C18.0696 0.631569 15.0471 0.370929 14.9175 0.361809C14.819 0.353702 14.7205 0.376423 14.6355 0.426821C14.5505 0.477219 14.4833 0.552799 14.4432 0.643088C14.3856 0.772795 14.3367 0.906212 14.2968 1.04245C15.5607 1.25605 17.113 1.68565 18.5175 2.55733C18.571 2.59058 18.6175 2.63406 18.6543 2.68528C18.6911 2.7365 18.7174 2.79447 18.7318 2.85587C18.7462 2.91727 18.7483 2.98089 18.7381 3.04312C18.7279 3.10534 18.7055 3.16495 18.6723 3.21853C18.639 3.27211 18.5955 3.31861 18.5443 3.35539C18.4931 3.39217 18.4351 3.41849 18.3737 3.43287C18.3123 3.44724 18.2487 3.44938 18.1865 3.43917C18.1242 3.42895 18.0646 3.40658 18.0111 3.37333C15.5967 1.87429 12.5813 1.79989 12 1.79989C11.4192 1.79989 8.40194 1.87477 5.98898 3.37285C5.9354 3.4061 5.8758 3.42847 5.81357 3.43869C5.75135 3.4489 5.68772 3.44676 5.62632 3.43239C5.50232 3.40336 5.39493 3.32626 5.32778 3.21805C5.26063 3.10984 5.23921 2.97939 5.26824 2.85539C5.29727 2.73139 5.37437 2.624 5.48258 2.55685C6.88706 1.68757 8.43938 1.25605 9.70322 1.04437C9.63026 0.806288 9.56402 0.656048 9.55922 0.643088C9.51928 0.552162 9.45177 0.476086 9.36625 0.425612C9.28071 0.375138 9.18149 0.352819 9.08258 0.361809C8.95298 0.371409 5.93042 0.631568 3.99362 2.19013C2.98322 3.12517 0.960022 8.59285 0.960022 13.3199C0.960022 13.4044 0.982582 13.485 1.02386 13.558C2.41874 16.0108 6.22706 16.6516 7.0949 16.6799H7.10978C7.18552 16.6801 7.26023 16.6624 7.3278 16.6281C7.39538 16.5939 7.4539 16.5442 7.49858 16.4831L8.37554 15.2754C6.0077 14.6644 4.7981 13.6256 4.72898 13.5637C4.6335 13.4795 4.57541 13.3607 4.56749 13.2336C4.55957 13.1065 4.60247 12.9814 4.68674 12.886C4.77102 12.7905 4.88977 12.7324 5.01687 12.7245C5.14398 12.7166 5.26902 12.7594 5.3645 12.8437C5.39234 12.8701 7.62002 14.7599 12 14.7599C16.3872 14.7599 18.6149 12.8624 18.6375 12.8437C18.7332 12.7601 18.8583 12.7178 18.9852 12.7263C19.1121 12.7347 19.2304 12.7932 19.3143 12.8888C19.3557 12.936 19.3875 12.9908 19.4078 13.0503C19.4281 13.1097 19.4365 13.1726 19.4325 13.2352C19.4285 13.2979 19.4121 13.3592 19.3844 13.4155C19.3568 13.4719 19.3182 13.5223 19.2711 13.5637C19.2019 13.6256 17.9923 14.6644 15.6245 15.2754L16.5019 16.4831C16.5466 16.5442 16.605 16.5938 16.6725 16.628C16.74 16.6622 16.8146 16.68 16.8903 16.6799H16.9047C17.7735 16.6516 21.5813 16.0103 22.9767 13.558C23.0175 13.485 23.04 13.4044 23.04 13.3199C23.04 8.59285 21.0168 3.12565 19.98 2.16949ZM8.88002 11.3999C7.9517 11.3999 7.20002 10.5407 7.20002 9.47989C7.20002 8.41909 7.9517 7.55989 8.88002 7.55989C9.80834 7.55989 10.56 8.41909 10.56 9.47989C10.56 10.5407 9.80834 11.3999 8.88002 11.3999ZM15.12 11.3999C14.1917 11.3999 13.44 10.5407 13.44 9.47989C13.44 8.41909 14.1917 7.55989 15.12 7.55989C16.0483 7.55989 16.8 8.41909 16.8 9.47989C16.8 10.5407 16.0483 11.3999 15.12 11.3999Z" fill="#FEFDFC"/>
</svg>
