<svg width="186" height="186" viewBox="0 0 186 186" fill="none" xmlns="http://www.w3.org/2000/svg">
<rect width="186" height="186" rx="12" fill="#242424"/>
<path d="M62.8533 32.7109V57.8486H59.7111C58.0443 57.8486 56.4459 58.5108 55.2673 59.6893C54.0887 60.8679 53.4266 62.4664 53.4266 64.1331V92.4131C53.4266 94.0798 54.0887 95.6783 55.2673 96.8569C56.4459 98.0354 58.0443 98.6976 59.7111 98.6976H62.8533V101.84C62.8533 104.34 63.8465 106.738 65.6143 108.505C67.3822 110.273 69.7799 111.266 72.28 111.266H116.271C118.771 111.266 121.169 110.273 122.937 108.505C124.705 106.738 125.698 104.34 125.698 101.84V98.6976H128.84C130.507 98.6976 132.105 98.0354 133.284 96.8569C134.462 95.6783 135.124 94.0798 135.124 92.4131V64.1331C135.124 62.4664 134.462 60.8679 133.284 59.6893C132.105 58.5108 130.507 57.8486 128.84 57.8486H125.698V47.8815C125.696 45.3827 124.703 42.9867 122.936 41.22L107.765 26.0431C105.997 24.2762 103.6 23.2839 101.1 23.2842H72.28C69.7799 23.2842 67.3822 24.2773 65.6143 26.0452C63.8465 27.813 62.8533 30.2107 62.8533 32.7109ZM72.28 29.5686H94.2755V45.2797C94.2755 47.7799 95.2687 50.1776 97.0365 51.9454C98.8044 53.7133 101.202 54.7064 103.702 54.7064H119.413V57.8486H69.1378V32.7109C69.1378 31.8775 69.4688 31.0782 70.0581 30.489C70.6474 29.8997 71.4466 29.5686 72.28 29.5686ZM69.1378 101.84V98.6976H119.413V101.84C119.413 102.673 119.082 103.472 118.493 104.062C117.904 104.651 117.104 104.982 116.271 104.982H72.28C71.4466 104.982 70.6474 104.651 70.0581 104.062C69.4688 103.472 69.1378 102.673 69.1378 101.84ZM119.413 47.8815V48.422H103.702C102.869 48.422 102.07 48.0909 101.48 47.5016C100.891 46.9124 100.56 46.1131 100.56 45.2797V29.5686H101.1C101.934 29.5688 102.733 29.9 103.322 30.4893L118.493 45.66C119.082 46.2491 119.413 47.0482 119.413 47.8815ZM59.7111 64.1331H128.84V92.4131H59.7111V64.1331Z" fill="white"/>
<path d="M78.9941 82.7773C78.9941 82.0026 78.7207 81.4102 78.1738 81C77.627 80.5807 76.6426 80.1432 75.2207 79.6875C73.7988 79.2227 72.6732 78.7669 71.8438 78.3203C69.5833 77.099 68.4531 75.4538 68.4531 73.3848C68.4531 72.3092 68.7539 71.3522 69.3555 70.5137C69.9661 69.666 70.8366 69.0052 71.9668 68.5312C73.1061 68.0573 74.3822 67.8203 75.7949 67.8203C77.2168 67.8203 78.4837 68.0801 79.5957 68.5996C80.7077 69.11 81.569 69.8346 82.1797 70.7734C82.7995 71.7122 83.1094 72.7786 83.1094 73.9727H79.0078C79.0078 73.0612 78.7207 72.3548 78.1465 71.8535C77.5723 71.3431 76.7656 71.0879 75.7266 71.0879C74.724 71.0879 73.9447 71.3021 73.3887 71.7305C72.8327 72.1497 72.5547 72.7057 72.5547 73.3984C72.5547 74.0456 72.8783 74.5879 73.5254 75.0254C74.1816 75.4629 75.1432 75.873 76.4102 76.2559C78.7435 76.9577 80.4434 77.8281 81.5098 78.8672C82.5762 79.9062 83.1094 81.2005 83.1094 82.75C83.1094 84.4727 82.4577 85.8262 81.1543 86.8105C79.8509 87.7858 78.0964 88.2734 75.8906 88.2734C74.3594 88.2734 72.9648 87.9954 71.707 87.4395C70.4492 86.8743 69.4876 86.1042 68.8223 85.1289C68.166 84.1536 67.8379 83.0234 67.8379 81.7383H71.9531C71.9531 83.9349 73.2656 85.0332 75.8906 85.0332C76.8659 85.0332 77.627 84.8372 78.1738 84.4453C78.7207 84.0443 78.9941 83.4883 78.9941 82.7773ZM85.8984 88V68.0938H92.0234C93.7734 68.0938 95.3366 68.4902 96.7129 69.2832C98.0983 70.0671 99.1784 71.1882 99.9531 72.6465C100.728 74.0957 101.115 75.7454 101.115 77.5957V78.5117C101.115 80.362 100.732 82.0072 99.9668 83.4473C99.2103 84.8874 98.1393 86.0039 96.7539 86.7969C95.3685 87.5898 93.8053 87.9909 92.0645 88H85.8984ZM90 71.416V84.7051H91.9824C93.5866 84.7051 94.8125 84.181 95.6602 83.1328C96.5078 82.0846 96.9408 80.5853 96.959 78.6348V77.582C96.959 75.5586 96.5397 74.0273 95.7012 72.9883C94.8626 71.9401 93.6367 71.416 92.0234 71.416H90ZM110.344 80.0156L108.211 82.3125V88H104.109V68.0938H108.211V77.1172L110.016 74.6426L115.088 68.0938H120.133L113.064 76.9395L120.338 88H115.457L110.344 80.0156Z" fill="white"/>
<path d="M104.221 123.862L94.4387 123.781L94.4925 117.26L112.426 117.408C113.075 117.413 113.698 117.16 114.161 116.705C114.623 116.25 114.886 115.631 114.892 114.983L114.946 108.461L111.685 108.434L111.638 114.141L93.7042 113.993C93.0559 113.988 92.4321 114.241 91.9699 114.696C91.5076 115.15 91.2446 115.77 91.2385 116.418L91.178 123.755L81.396 123.674C77.938 123.649 74.6115 124.997 72.1462 127.422C69.6808 129.847 68.2781 133.151 68.2457 136.609L68.1609 146.896C68.1434 149.356 69.1022 151.722 70.8271 153.475C72.552 155.229 74.9021 156.227 77.3617 156.25L77.5451 156.251C78.9056 156.264 80.2522 155.977 81.489 155.41C82.7258 154.844 83.8224 154.011 84.7006 152.972L90.1237 146.572L95.0787 146.613L100.388 153.634C101.556 155.179 103.18 156.32 105.029 156.895C106.879 157.471 108.863 157.454 110.702 156.845C112.541 156.236 114.144 155.067 115.285 153.501C116.426 151.935 117.048 150.052 117.064 148.114L117.156 137.012C117.181 133.554 115.833 130.228 113.408 127.763C110.983 125.297 107.679 123.895 104.221 123.862ZM113.804 148.088C113.793 149.344 113.39 150.566 112.65 151.581C111.91 152.597 110.87 153.355 109.677 153.75C108.485 154.145 107.198 154.156 105.998 153.783C104.798 153.409 103.746 152.669 102.988 151.667L96.7105 143.366L88.6228 143.299L82.2124 150.864C81.6429 151.538 80.9318 152.078 80.1298 152.445C79.3277 152.813 78.4545 152.999 77.5723 152.991L77.3889 152.989C75.7937 152.974 74.2695 152.327 73.1508 151.19C72.0321 150.053 71.4102 148.518 71.4215 146.923L71.5064 136.636C71.5307 134.043 72.5827 131.565 74.4317 129.746C76.2807 127.927 78.7756 126.916 81.3691 126.935L104.194 127.123C106.787 127.147 109.265 128.199 111.084 130.048C112.903 131.897 113.914 134.392 113.895 136.986L113.804 148.088Z" fill="white"/>
<path d="M103.338 132.006L106.599 132.033L106.572 135.294L103.311 135.267L103.338 132.006Z" fill="white"/>
<path d="M103.271 140.159L106.532 140.186L106.505 143.446L103.244 143.419L103.271 140.159Z" fill="white"/>
<path d="M99.2288 136.049L102.489 136.076L102.463 139.337L99.2019 139.31L99.2288 136.049Z" fill="white"/>
<path d="M107.38 136.116L110.641 136.143L110.614 139.404L107.353 139.377L107.38 136.116Z" fill="white"/>
<path d="M82.1439 131.832L78.8832 131.805L78.8496 135.881L74.7738 135.847L74.7469 139.108L78.8227 139.142L78.7891 143.218L82.0498 143.244L82.0834 139.169L86.1593 139.202L86.1862 135.941L82.1103 135.908L82.1439 131.832Z" fill="white"/>
</svg>
