<svg width="186" height="186" viewBox="0 0 186 186" fill="none" xmlns="http://www.w3.org/2000/svg">
<rect width="186" height="186" rx="12" fill="#242424"/>
<path d="M101.734 50.1382C101.75 53.0059 100.813 55.7977 99.069 58.0745C97.3254 60.3513 94.8744 61.984 92.1016 62.7158L92.2785 95.6106C97.8619 96.1173 101.991 97.9963 102.003 100.253C102.018 102.93 96.242 105.134 89.0966 105.172C81.9512 105.211 76.152 103.069 76.1376 100.392C76.1255 98.1289 80.2344 96.212 85.812 95.6453L85.6352 62.7506C83.29 62.1585 81.1579 60.9206 79.4809 59.1775C77.804 57.4344 76.6495 55.256 76.1485 52.8897C75.6475 50.5233 75.8202 48.064 76.6468 45.7908C77.4735 43.5177 78.9211 41.522 80.8251 40.0303C82.7291 38.5386 85.0133 37.6107 87.4182 37.3521C89.8232 37.0935 92.2524 37.5144 94.4301 38.5672C96.6077 39.6199 98.4465 41.2622 99.7376 43.3076C101.029 45.353 101.72 47.7195 101.734 50.1382Z" fill="white"/>
<path d="M37.336 100.051L37.3957 111.154C37.4028 112.355 37.744 113.529 38.381 114.547C39.0181 115.565 39.9259 116.385 41.0027 116.916L83.4912 137.878C85.2911 138.766 87.2728 139.222 89.2795 139.211C91.2862 139.201 93.2629 138.723 95.0532 137.816L137.314 116.398C138.385 115.856 139.284 115.026 139.91 114.001C140.536 112.977 140.864 111.798 140.859 110.598L140.799 99.4949C140.795 98.8482 140.404 98.2683 139.808 98.0129L98.6646 80.6448L98.6991 87.066L132.575 100.968C132.721 101.029 132.847 101.131 132.935 101.263C133.024 101.394 133.072 101.549 133.074 101.707C133.075 101.866 133.03 102.021 132.944 102.154C132.858 102.287 132.735 102.392 132.589 102.455L94.2672 119.125C92.6608 119.824 90.9291 120.19 89.1773 120.199C87.4255 120.208 85.69 119.862 84.0761 119.18L45.577 102.923C45.4311 102.861 45.3067 102.758 45.2191 102.626C45.1316 102.494 45.0849 102.339 45.0847 102.18C45.0845 102.022 45.131 101.867 45.2182 101.734C45.3055 101.602 45.4297 101.498 45.5755 101.436L79.2998 87.1703L79.1814 80.7819L38.3109 98.5585C38.02 98.6843 37.7725 98.8929 37.5991 99.1583C37.4258 99.4236 37.3343 99.7341 37.336 100.051V100.051Z" fill="white"/>
</svg>
