<svg width="93" height="73" viewBox="0 0 93 73" fill="none" xmlns="http://www.w3.org/2000/svg">
<path d="M7.29538 62.3544L3.0071 19.5546C2.94157 18.9005 3.33471 18.3096 3.97484 18.1685C12.8795 16.2046 73.8518 2.8116 79.6318 3.00201C85.2389 3.18672 89.2397 33.9703 89.9907 40.1866C90.0673 40.8208 89.6652 41.3971 89.0507 41.5651L8.92142 63.4755C8.1504 63.6864 7.37529 63.1519 7.29538 62.3544Z" stroke="white" stroke-width="5" stroke-linecap="round" stroke-linejoin="round"/>
<path d="M62.2609 12.0007L75.5331 9.93481L78.6522 18.1305" stroke="white" stroke-width="3" stroke-linecap="round" stroke-linejoin="round"/>
<path d="M26.9565 52.1525L13.2833 55.9565L12.4565 45.8696" stroke="white" stroke-width="3" stroke-linecap="round" stroke-linejoin="round"/>
<path d="M22.5586 45.8696L18.7609 31.779L23.7255 30.4565C25.4452 29.9984 26.8384 29.9799 27.9048 30.4012C28.9695 30.8159 29.6723 31.6556 30.0131 32.9202C30.1992 33.6105 30.185 34.2677 29.9707 34.8918C29.7546 35.5095 29.3616 36.0256 28.7917 36.4402C29.5673 36.4272 30.2366 36.6396 30.7997 37.0774C31.3694 37.5134 31.7611 38.1282 31.975 38.9218C32.3402 40.2767 32.1819 41.4183 31.5001 42.3468C30.8182 43.2752 29.6743 43.9602 28.0684 44.4019L22.5586 45.8696ZM23.8253 38.956L24.8504 42.7593L27.3522 42.0929C28.0401 41.9096 28.532 41.6057 28.8279 41.1811C29.1286 40.7484 29.2016 40.2449 29.0468 39.6707C28.6991 38.3803 27.8509 37.9044 26.5023 38.2429L23.8253 38.956ZM23.2723 36.9044L25.4334 36.3287C26.8996 35.9105 27.4788 35.1304 27.171 33.9884C26.9989 33.3497 26.6872 32.9417 26.236 32.7646C25.7896 32.5793 25.164 32.5938 24.3593 32.8081L22.3151 33.3527L23.2723 36.9044Z" fill="white"/>
<path d="M35.2914 42.4778L31.4936 28.3872L36.4582 27.0647C38.178 26.6066 39.5711 26.5881 40.6376 27.0094C41.7023 27.4242 42.4051 28.2638 42.7459 29.5284C42.932 30.2187 42.9178 30.8759 42.7035 31.5001C42.4874 32.1177 42.0944 32.6339 41.5245 33.0484C42.3 33.0355 42.9694 33.2479 43.5325 33.6856C44.1021 34.1216 44.4939 34.7364 44.7078 35.53C45.073 36.8849 44.9146 38.0265 44.2328 38.955C43.551 39.8834 42.4071 40.5684 40.8011 41.0101L35.2914 42.4778ZM36.5581 35.5642L37.5831 39.3675L40.0849 38.7011C40.7728 38.5179 41.2648 38.2139 41.5607 37.7894C41.8614 37.3566 41.9344 36.8531 41.7796 36.2789C41.4318 34.9886 40.5836 34.5126 39.2351 34.8511L36.5581 35.5642ZM36.0051 33.5126L38.1662 32.9369C39.6324 32.5187 40.2116 31.7386 39.9038 30.5966C39.7316 29.9579 39.42 29.55 38.9688 29.3728C38.5224 29.1875 37.8968 29.202 37.0921 29.4163L35.0478 29.9609L36.0051 33.5126Z" fill="white"/>
<path d="M58.7584 34.318C58.4014 35.0839 57.7896 35.7689 56.9231 36.3732C56.0548 36.971 55.0365 37.4255 53.8684 37.7366C52.6418 38.0634 51.4932 38.0858 50.4226 37.804C49.3568 37.514 48.4342 36.9299 47.655 36.0518C46.8823 35.172 46.3051 34.05 45.9235 32.6857L45.6653 31.7276C45.2862 30.3211 45.1953 29.0418 45.3926 27.8898C45.5946 26.7296 46.0703 25.7593 46.8198 24.9787C47.5741 24.1901 48.5548 23.6349 49.7619 23.3134C51.4427 22.8656 52.8647 22.9156 54.0278 23.4632C55.1892 24.0044 56.0626 25.0129 56.6483 26.4889L53.8058 27.246C53.4586 26.4742 53.0107 25.9607 52.4621 25.7058C51.9199 25.4492 51.2594 25.4246 50.4807 25.632C49.4878 25.8965 48.8317 26.4689 48.5125 27.3492C48.1933 28.2294 48.2278 29.4027 48.6161 30.8689L48.8586 31.769C49.2569 33.2464 49.84 34.2874 50.608 34.8918C51.3761 35.4963 52.3053 35.6533 53.3955 35.3628C54.4923 35.0707 55.2117 34.6301 55.5537 34.0411L54.899 31.612L52.2415 32.32L51.6651 30.1812L57.243 28.6954L58.7584 34.318Z" fill="white"/>
<path d="M72.3478 30.6981C71.9908 31.4639 71.379 32.149 70.5125 32.7532C69.6442 33.351 68.6259 33.8055 67.4578 34.1167C66.2312 34.4434 65.0827 34.4658 64.012 34.184C62.9462 33.894 62.0236 33.3099 61.2444 32.4319C60.4717 31.5521 59.8946 30.43 59.5129 29.0657L59.2547 28.1076C58.8756 26.7011 58.7847 25.4219 58.982 24.2698C59.184 23.1096 59.6597 22.1393 60.4092 21.3588C61.1635 20.5701 62.1442 20.015 63.3513 19.6934C65.0321 19.2457 66.4541 19.2956 67.6172 19.8432C68.7786 20.3844 69.6521 21.3929 70.2377 22.8689L67.3952 23.6261C67.048 22.8542 66.6001 22.3408 66.0515 22.0858C65.5093 21.8292 64.8489 21.8046 64.0701 22.0121C63.0772 22.2765 62.4211 22.8489 62.1019 23.7292C61.7827 24.6094 61.8172 25.7827 62.2055 27.249L62.448 28.149C62.8463 29.6264 63.4294 30.6674 64.1974 31.2718C64.9655 31.8763 65.8947 32.0333 66.9849 31.7429C68.0817 31.4507 68.8011 31.0101 69.1432 30.4211L68.4885 27.9921L65.8309 28.7L65.2545 26.5612L70.8324 25.0754L72.3478 30.6981Z" fill="white"/>
<path d="M48.4216 54.0719C48.2817 53.5244 48.6395 52.9738 49.2207 52.842L52.0416 52.2025C52.6228 52.0707 53.2074 52.4077 53.3472 52.9552L57.8175 70.4499C57.9574 70.9974 57.5996 71.548 57.0184 71.6798L54.1975 72.3193C53.6163 72.4511 53.0318 72.1141 52.8919 71.5666L48.4216 54.0719Z" fill="white"/>
</svg>
